<svg xmlns="http://www.w3.org/2000/svg" width="384" height="446" viewBox="0 0 384 446" fill="none"><path d="M338.505 139.915L383.52 113.733C384.848 112.961 384.846 111.043 383.517 110.273L194.003 0.58066C193.383 0.221531 192.618 0.221957 191.997 0.581782L0.996161 111.422C0.379523 111.78 0 112.439 0 113.152V333.343C0 334.059 0.382463 334.72 1.00289 335.077L192.002 444.926C192.62 445.281 193.38 445.281 193.998 444.925L382.513 336.223C383.843 335.455 383.848 333.536 382.521 332.762L338.503 307.085C337.883 306.723 337.116 306.722 336.495 307.081L194.001 389.422C193.382 389.78 192.618 389.78 191.999 389.422L49.4993 307.077C48.8809 306.72 48.5 306.06 48.5 305.346V140.658C48.5 139.942 48.8829 139.28 49.5039 138.923L191.998 57.0756C192.618 56.7195 193.381 56.7214 193.999 57.0808L336.495 139.916C337.116 140.277 337.884 140.277 338.505 139.915Z" fill="#FE6601"/><path d="M192.014 111.558L98.0248 164.787C96.6828 165.547 96.6697 167.476 98.0013 168.254L132.488 188.408C133.113 188.774 133.887 188.773 134.511 188.405L192 154.588C192.619 154.224 193.384 154.22 194.007 154.575L251.492 187.424C252.115 187.78 252.5 188.443 252.5 189.161V200.064C252.5 201.143 251.644 202.028 250.565 202.063L192.935 203.937C191.856 203.972 191 204.857 191 205.936V243C191 244.105 191.895 245 193 245H250.5C251.605 245 252.5 245.895 252.5 247V256.856C252.5 257.565 252.125 258.221 251.514 258.58L194.014 292.404C193.388 292.772 192.612 292.772 191.986 292.404L134.477 258.575C133.871 258.218 133.122 258.206 132.505 258.543L98.1164 277.3C96.7483 278.046 96.7215 280.001 98.0686 280.785L191.994 335.415C192.616 335.777 193.384 335.777 194.006 335.415L290.006 279.578C290.621 279.22 291 278.562 291 277.85V167.666C291 166.945 290.612 166.281 289.986 165.926L193.986 111.558C193.374 111.212 192.626 111.212 192.014 111.558Z" fill="#FE6601"/><defs><linearGradient id="paint0_linear_2405_169" x1="156" y1="174.5" x2="184.065" y2="330.201" gradientUnits="userSpaceOnUse"><stop stop-color="#FFA800"/><stop offset="1" stop-color="#FE6601"/></linearGradient></defs></svg>
