<?xml version="1.0" encoding="UTF-8"?> <svg xmlns="http://www.w3.org/2000/svg" width="1357" height="446" viewBox="0 0 1357 446" fill="none"><path d="M338.505 139.915L383.52 113.733C384.848 112.961 384.846 111.043 383.517 110.273L194.003 0.58066C193.383 0.221531 192.618 0.221957 191.997 0.581782L0.996161 111.422C0.379523 111.78 0 112.439 0 113.152V333.343C0 334.059 0.382463 334.72 1.00289 335.077L192.002 444.926C192.62 445.281 193.38 445.281 193.998 444.925L382.513 336.223C383.843 335.455 383.848 333.536 382.521 332.762L338.503 307.085C337.883 306.723 337.116 306.722 336.495 307.081L194.001 389.422C193.382 389.78 192.618 389.78 191.999 389.422L49.4993 307.077C48.8809 306.72 48.5 306.06 48.5 305.346V140.658C48.5 139.942 48.8829 139.28 49.5039 138.923L191.998 57.0756C192.618 56.7195 193.381 56.7214 193.999 57.0808L336.495 139.916C337.116 140.277 337.884 140.277 338.505 139.915Z" fill="#FE6601"></path><path d="M192.014 111.558L98.0248 164.787C96.6828 165.547 96.6697 167.476 98.0013 168.254L132.488 188.408C133.113 188.774 133.887 188.773 134.511 188.405L192 154.588C192.619 154.224 193.384 154.22 194.007 154.575L251.492 187.424C252.115 187.78 252.5 188.443 252.5 189.161V200.064C252.5 201.143 251.644 202.028 250.565 202.063L192.935 203.937C191.856 203.972 191 204.857 191 205.936V243C191 244.105 191.895 245 193 245H250.5C251.605 245 252.5 245.895 252.5 247V256.856C252.5 257.565 252.125 258.221 251.514 258.58L194.014 292.404C193.388 292.772 192.612 292.772 191.986 292.404L134.477 258.575C133.871 258.218 133.122 258.206 132.505 258.543L98.1164 277.3C96.7483 278.046 96.7215 280.001 98.0686 280.785L191.994 335.415C192.616 335.777 193.384 335.777 194.006 335.415L290.006 279.578C290.621 279.22 291 278.562 291 277.85V167.666C291 166.945 290.612 166.281 289.986 165.926L193.986 111.558C193.374 111.212 192.626 111.212 192.014 111.558Z" fill="url(#paint0_linear_2405_169)"></path><path d="M192.014 111.558L98.0248 164.787C96.6828 165.547 96.6697 167.476 98.0013 168.254L132.488 188.408C133.113 188.774 133.887 188.773 134.511 188.405L192 154.588C192.619 154.224 193.384 154.22 194.007 154.575L251.492 187.424C252.115 187.78 252.5 188.443 252.5 189.161V200.064C252.5 201.143 251.644 202.028 250.565 202.063L192.935 203.937C191.856 203.972 191 204.857 191 205.936V243C191 244.105 191.895 245 193 245H250.5C251.605 245 252.5 245.895 252.5 247V256.856C252.5 257.565 252.125 258.221 251.514 258.58L194.014 292.404C193.388 292.772 192.612 292.772 191.986 292.404L134.477 258.575C133.871 258.218 133.122 258.206 132.505 258.543L98.1164 277.3C96.7483 278.046 96.7215 280.001 98.0686 280.785L191.994 335.415C192.616 335.777 193.384 335.777 194.006 335.415L290.006 279.578C290.621 279.22 291 278.562 291 277.85V167.666C291 166.945 290.612 166.281 289.986 165.926L193.986 111.558C193.374 111.212 192.626 111.212 192.014 111.558Z" fill="#FE6601"></path><path d="M524.981 242.692V205.616H628.435V242.692H524.981ZM552.489 117.112C568.236 117.112 582.688 119.803 595.844 125.185C609 130.368 620.462 137.843 630.229 147.61C639.996 157.377 647.571 168.839 652.953 181.995C658.335 195.151 661.026 209.603 661.026 225.35C661.026 241.097 658.335 255.549 652.953 268.705C647.571 281.861 639.996 293.323 630.229 303.09C620.462 312.857 609 320.432 595.844 325.814C582.688 330.997 568.236 333.588 552.489 333.588C533.951 333.588 517.207 330.399 502.257 324.02C487.506 317.641 475.148 308.372 465.181 296.213L495.978 267.509C503.353 275.881 511.526 282.16 520.496 286.346C529.466 290.333 539.333 292.326 550.097 292.326C559.067 292.326 567.339 290.731 574.914 287.542C582.688 284.153 589.266 279.569 594.648 273.788C600.229 267.808 604.415 260.732 607.206 252.559C610.196 244.386 611.691 235.317 611.691 225.35C611.691 215.383 610.196 206.314 607.206 198.141C604.415 189.968 600.229 182.992 594.648 177.211C589.266 171.231 582.688 166.646 574.914 163.457C567.339 160.068 559.067 158.374 550.097 158.374C539.333 158.374 529.466 160.467 520.496 164.653C511.526 168.64 503.353 174.819 495.978 183.191L465.181 154.487C475.148 142.328 487.506 133.059 502.257 126.68C517.207 120.301 533.951 117.112 552.489 117.112ZM698.959 330V120.7H867.894V159.271H747.098V202.327H805.104C830.42 202.327 849.655 207.609 862.811 218.174C876.167 228.739 882.844 244.087 882.844 264.22C882.844 284.951 875.469 301.097 860.718 312.658C845.968 324.219 825.137 330 798.227 330H698.959ZM747.098 294.12H795.536C807.895 294.12 817.363 291.728 823.941 286.944C830.519 281.961 833.808 274.785 833.808 265.416C833.808 247.077 821.051 237.908 795.536 237.908H747.098V294.12ZM919.705 330V120.7H967.844V257.044L1067.71 120.7H1113.16V330H1065.32V193.955L965.452 330H919.705ZM1264.24 333.588C1248.09 333.588 1233.04 330.997 1219.09 325.814C1205.34 320.432 1193.38 312.857 1183.21 303.09C1173.04 293.323 1165.07 281.861 1159.29 268.705C1153.71 255.549 1150.92 241.097 1150.92 225.35C1150.92 209.603 1153.71 195.151 1159.29 181.995C1165.07 168.839 1173.04 157.377 1183.21 147.61C1193.58 137.843 1205.64 130.368 1219.39 125.185C1233.14 119.803 1248.19 117.112 1264.54 117.112C1282.68 117.112 1299.02 120.301 1313.57 126.68C1328.33 132.859 1340.68 142.029 1350.65 154.188L1319.55 182.892C1312.38 174.719 1304.41 168.64 1295.63 164.653C1286.86 160.467 1277.3 158.374 1266.93 158.374C1257.16 158.374 1248.19 159.969 1240.02 163.158C1231.85 166.347 1224.77 170.932 1218.79 176.912C1212.81 182.892 1208.13 189.968 1204.74 198.141C1201.55 206.314 1199.95 215.383 1199.95 225.35C1199.95 235.317 1201.55 244.386 1204.74 252.559C1208.13 260.732 1212.81 267.808 1218.79 273.788C1224.77 279.768 1231.85 284.353 1240.02 287.542C1248.19 290.731 1257.16 292.326 1266.93 292.326C1277.3 292.326 1286.86 290.333 1295.63 286.346C1304.41 282.16 1312.38 275.881 1319.55 267.509L1350.65 296.213C1340.68 308.372 1328.33 317.641 1313.57 324.02C1299.02 330.399 1282.58 333.588 1264.24 333.588Z" fill="black"></path><defs><linearGradient id="paint0_linear_2405_169" x1="156" y1="174.5" x2="184.065" y2="330.201" gradientUnits="userSpaceOnUse"><stop stop-color="#FFA800"></stop><stop offset="1" stop-color="#FE6601"></stop></linearGradient></defs></svg> 